<?xml version="1.0" encoding="UTF-8" standalone="no"?>
<!DOCTYPE svg PUBLIC "-//W3C//DTD SVG 1.1//EN"
 "http://www.w3.org/Graphics/SVG/1.1/DTD/svg11.dtd">
<!-- Generated by graphviz version 2.43.0 (0)
 -->
<!-- Title: becoming a mirror Pages: 1 -->
<svg width="842pt" height="387pt"
 viewBox="0.00 0.00 841.51 387.00" xmlns="http://www.w3.org/2000/svg" xmlns:xlink="http://www.w3.org/1999/xlink">
<g id="graph0" class="graph" transform="scale(1 1) rotate(0) translate(4 383)">
<title>becoming a mirror</title>
<polygon fill="white" stroke="transparent" points="-4,4 -4,-383 837.51,-383 837.51,4 -4,4"/>
<text text-anchor="middle" x="416.76" y="-363.8" font-family="Times,serif" font-size="14.00">registry.k8s.io becoming a mirror diagram</text>
<!-- CheckRequirements -->
<g id="node1" class="node">
<title>CheckRequirements</title>
<ellipse fill="none" stroke="black" cx="423.23" cy="-338" rx="104.78" ry="18"/>
<text text-anchor="middle" x="423.23" y="-334.3" font-family="Times,serif" font-size="14.00">Check requirements</text>
</g>
<!-- SetupRegistry -->
<g id="node4" class="node">
<title>SetupRegistry</title>
<ellipse fill="none" stroke="black" cx="211.23" cy="-265" rx="211.46" ry="18"/>
<text text-anchor="middle" x="211.23" y="-261.3" font-family="Times,serif" font-size="14.00">Set up an OCI compliant container registry</text>
</g>
<!-- CheckRequirements&#45;&gt;SetupRegistry -->
<g id="edge3" class="edge">
<title>CheckRequirements&#45;&gt;SetupRegistry</title>
<path fill="none" stroke="black" d="M377.75,-321.77C346.41,-311.27 304.46,-297.22 270.51,-285.85"/>
<polygon fill="black" stroke="black" points="271.3,-282.43 260.7,-282.57 269.08,-289.06 271.3,-282.43"/>
</g>
<!-- SetupBucket -->
<g id="node5" class="node">
<title>SetupBucket</title>
<ellipse fill="none" stroke="black" cx="637.23" cy="-265" rx="196.07" ry="18"/>
<text text-anchor="middle" x="637.23" y="-261.3" font-family="Times,serif" font-size="14.00">Set up a bucket with public ingress URI</text>
</g>
<!-- CheckRequirements&#45;&gt;SetupBucket -->
<g id="edge4" class="edge">
<title>CheckRequirements&#45;&gt;SetupBucket</title>
<path fill="none" stroke="black" d="M469.14,-321.77C500.88,-311.24 543.42,-297.12 577.76,-285.73"/>
<polygon fill="black" stroke="black" points="579.28,-288.91 587.67,-282.44 577.08,-282.27 579.28,-288.91"/>
</g>
<!-- MakeAPR -->
<g id="node2" class="node">
<title>MakeAPR</title>
<ellipse fill="none" stroke="black" cx="423.23" cy="-192" rx="60.39" ry="18"/>
<text text-anchor="middle" x="423.23" y="-188.3" font-family="Times,serif" font-size="14.00">Make a PR</text>
</g>
<!-- RunTests -->
<g id="node6" class="node">
<title>RunTests</title>
<ellipse fill="none" stroke="black" cx="423.23" cy="-105" rx="55.49" ry="18"/>
<text text-anchor="middle" x="423.23" y="-101.3" font-family="Times,serif" font-size="14.00">Run tests</text>
</g>
<!-- MakeAPR&#45;&gt;RunTests -->
<g id="edge5" class="edge">
<title>MakeAPR&#45;&gt;RunTests</title>
<path fill="none" stroke="black" d="M423.23,-173.8C423.23,-162.16 423.23,-146.55 423.23,-133.24"/>
<polygon fill="black" stroke="black" points="426.73,-133.18 423.23,-123.18 419.73,-133.18 426.73,-133.18"/>
<text text-anchor="middle" x="500.23" y="-144.8" font-family="Times,serif" font-size="14.00">by human or ProwJob</text>
</g>
<!-- ArtifactHostingAcceptance -->
<g id="node3" class="node">
<title>ArtifactHostingAcceptance</title>
<ellipse fill="none" stroke="black" cx="423.23" cy="-18" rx="128.08" ry="18"/>
<text text-anchor="middle" x="423.23" y="-14.3" font-family="Times,serif" font-size="14.00">Artifact hosting accepted</text>
</g>
<!-- SetupRegistry&#45;&gt;MakeAPR -->
<g id="edge1" class="edge">
<title>SetupRegistry&#45;&gt;MakeAPR</title>
<path fill="none" stroke="black" d="M260.67,-247.44C295.08,-235.92 340.74,-220.63 374.9,-209.19"/>
<polygon fill="black" stroke="black" points="376.29,-212.41 384.66,-205.92 374.07,-205.77 376.29,-212.41"/>
</g>
<!-- SetupBucket&#45;&gt;MakeAPR -->
<g id="edge2" class="edge">
<title>SetupBucket&#45;&gt;MakeAPR</title>
<path fill="none" stroke="black" d="M587.6,-247.53C552.76,-235.97 506.4,-220.59 471.8,-209.12"/>
<polygon fill="black" stroke="black" points="472.52,-205.66 461.92,-205.84 470.31,-212.31 472.52,-205.66"/>
</g>
<!-- RunTests&#45;&gt;ArtifactHostingAcceptance -->
<g id="edge6" class="edge">
<title>RunTests&#45;&gt;ArtifactHostingAcceptance</title>
<path fill="none" stroke="black" d="M423.23,-86.8C423.23,-75.16 423.23,-59.55 423.23,-46.24"/>
<polygon fill="black" stroke="black" points="426.73,-46.18 423.23,-36.18 419.73,-46.18 426.73,-46.18"/>
<text text-anchor="middle" x="466.73" y="-57.8" font-family="Times,serif" font-size="14.00">if tests pass</text>
</g>
</g>
</svg>
