<?xml version="1.0" encoding="UTF-8" standalone="no"?>
<!DOCTYPE svg PUBLIC "-//W3C//DTD SVG 1.1//EN"
 "http://www.w3.org/Graphics/SVG/1.1/DTD/svg11.dtd">
<!-- Generated by graphviz version 2.43.0 (0)
 -->
<!-- Title: AccountStructure Pages: 1 -->
<svg width="384pt" height="531pt"
 viewBox="0.00 0.00 384.00 531.00" xmlns="http://www.w3.org/2000/svg" xmlns:xlink="http://www.w3.org/1999/xlink">
<g id="graph0" class="graph" transform="scale(1 1) rotate(0) translate(4 527)">
<title>AccountStructure</title>
<polygon fill="white" stroke="transparent" points="-4,4 -4,-527 380,-527 380,4 -4,4"/>
<text text-anchor="middle" x="188" y="-507.8" font-family="Times,serif" font-size="14.00">CNCF AWS project account structure</text>
<g id="clust1" class="cluster">
<title>cluster0</title>
<polygon fill="none" stroke="black" points="8,-8 8,-492 368,-492 368,-8 8,-8"/>
<text text-anchor="middle" x="188" y="-476.8" font-family="Times,serif" font-size="14.00">CNCF root Org</text>
</g>
<g id="clust2" class="cluster">
<title>cluster0_0</title>
<polygon fill="none" stroke="black" points="16,-16 16,-461 360,-461 360,-16 16,-16"/>
<text text-anchor="middle" x="188" y="-445.8" font-family="Times,serif" font-size="14.00">Kubernetes Org Unit</text>
</g>
<g id="clust3" class="cluster">
<title>cluster0_0_0</title>
<polygon fill="none" stroke="black" points="87,-24 87,-285 333,-285 333,-24 87,-24"/>
<text text-anchor="middle" x="210" y="-269.8" font-family="Times,serif" font-size="14.00">registry.k8s.io Org Unit</text>
</g>
<g id="clust4" class="cluster">
<title>cluster0_0_0_0</title>
<polygon fill="none" stroke="black" points="95,-32 95,-254 325,-254 325,-32 95,-32"/>
<text text-anchor="middle" x="210" y="-238.8" font-family="Times,serif" font-size="14.00">registry.k8s.io_admin Account</text>
</g>
<g id="clust5" class="cluster">
<title>cluster0_0_0_0_0</title>
<polygon fill="none" stroke="black" points="133,-40 133,-115 243,-115 243,-40 133,-40"/>
<text text-anchor="middle" x="188" y="-99.8" font-family="Times,serif" font-size="14.00">S3 resources</text>
</g>
<g id="clust6" class="cluster">
<title>cluster0_0_0_0_1</title>
<polygon fill="none" stroke="black" points="105,-148 105,-223 271,-223 271,-148 105,-148"/>
<text text-anchor="middle" x="188" y="-207.8" font-family="Times,serif" font-size="14.00">IAM roles</text>
</g>
<g id="clust7" class="cluster">
<title>cluster0_0_1</title>
<polygon fill="none" stroke="black" points="24,-316 24,-430 352,-430 352,-316 24,-316"/>
<text text-anchor="middle" x="188" y="-414.8" font-family="Times,serif" font-size="14.00">k8s&#45;infra&#45;accounts Account</text>
</g>
<g id="clust8" class="cluster">
<title>cluster0_0_1_0</title>
<polygon fill="none" stroke="black" points="32,-324 32,-399 344,-399 344,-324 32,-324"/>
<text text-anchor="middle" x="188" y="-383.8" font-family="Times,serif" font-size="14.00">IAM users</text>
</g>
<!-- Buckets -->
<g id="node1" class="node">
<title>Buckets</title>
<ellipse fill="none" stroke="black" stroke-dasharray="5,2" cx="188" cy="-66" rx="46.59" ry="18"/>
<text text-anchor="middle" x="188" y="-62.3" font-family="Times,serif" font-size="14.00">Bucketⁿ</text>
</g>
<!-- s3writer -->
<g id="node2" class="node">
<title>s3writer</title>
<ellipse fill="none" stroke="black" cx="188" cy="-174" rx="75.29" ry="18"/>
<text text-anchor="middle" x="188" y="-170.3" font-family="Times,serif" font-size="14.00">S3 writer role</text>
</g>
<!-- s3writer&#45;&gt;Buckets -->
<g id="edge2" class="edge">
<title>s3writer&#45;&gt;Buckets</title>
<path fill="none" stroke="black" d="M188,-155.97C188,-139.38 188,-113.88 188,-94.43"/>
<polygon fill="black" stroke="black" points="191.5,-94.34 188,-84.34 184.5,-94.34 191.5,-94.34"/>
<text text-anchor="middle" x="251" y="-126.8" font-family="Times,serif" font-size="14.00">Writes to buckets</text>
</g>
<!-- k8s_infra_accounts_IAMUsers -->
<g id="node3" class="node">
<title>k8s_infra_accounts_IAMUsers</title>
<ellipse fill="none" stroke="black" cx="188" cy="-350" rx="147.57" ry="18"/>
<text text-anchor="middle" x="188" y="-346.3" font-family="Times,serif" font-size="14.00">k8s&#45;infra&#45;accounts IAM Users</text>
</g>
<!-- k8s_infra_accounts_IAMUsers&#45;&gt;s3writer -->
<g id="edge1" class="edge">
<title>k8s_infra_accounts_IAMUsers&#45;&gt;s3writer</title>
<path fill="none" stroke="black" d="M188,-332C188,-301.85 188,-238.79 188,-202.43"/>
<polygon fill="black" stroke="black" points="191.5,-202.07 188,-192.07 184.5,-202.07 191.5,-202.07"/>
<text text-anchor="middle" x="229" y="-296.8" font-family="Times,serif" font-size="14.00">Switch role</text>
</g>
</g>
</svg>
